<svg viewBox="0 0 1000 240" xmlns="http://www.w3.org/2000/svg" preserveAspectRatio="xMidYMid slice">
  <defs>
    <radialGradient id="vignette" cx="50%" cy="50%" r="70%">
      <stop offset="0%" style="stop-color:#0a0000;stop-opacity:0"/>
      <stop offset="100%" style="stop-color:#0a0000;stop-opacity:0.6"/>
    </radialGradient>
  </defs>
  <rect width="1000" height="240" fill="#0a0000"/>
  <rect width="1000" height="240" fill="url(#vignette)"/>
  <g stroke="#4b0000" stroke-width="0.5" opacity="0.4" stroke-linecap="round">
    <line x1="250" y1="80" x2="320" y2="110"/>
    <line x1="320" y1="110" x2="380" y2="85"/>
    <line x1="380" y1="85" x2="420" y2="130"/>
    <line x1="250" y1="80" x2="280" y2="140"/>
    <line x1="580" y1="60" x2="640" y2="90"/>
    <line x1="640" y1="90" x2="700" y2="70"/>
    <line x1="700" y1="70" x2="720" y2="120"/>
    <line x1="640" y1="90" x2="670" y2="140"/>
    <line x1="750" y1="150" x2="810" y2="170"/>
    <line x1="810" y1="170" x2="850" y2="145"/>
    <line x1="150" y1="160" x2="200" y2="190"/>
    <line x1="200" y1="190" x2="240" y2="165"/>
    <line x1="450" y1="180" x2="510" y2="160"/>
    <line x1="510" y1="160" x2="550" y2="190"/>
    <line x1="320" y1="110" x2="380" y2="140"/>
  </g>
  <g stroke="#8B0000" stroke-width="0.8" fill="none" opacity="0.3">
    <circle cx="500" cy="120" r="35"/>
    <circle cx="500" cy="120" r="55"/>
    <line x1="500" y1="65" x2="500" y2="175"/>
    <line x1="445" y1="120" x2="555" y2="120"/>
    <line x1="456" y1="79" x2="544" y2="161"/>
    <line x1="544" y1="79" x2="456" y2="161"/>
  </g>
  <circle cx="250" cy="80" r="1.5" fill="#ffffff"><animate attributeName="opacity" values="0.5;1;0.5" dur="3s" begin="0s" repeatCount="indefinite"/></circle>
  <circle cx="280" cy="95" r="2" fill="#ffd0d0"><animate attributeName="opacity" values="0.5;1;0.5" dur="3.2s" begin="0.3s" repeatCount="indefinite"/></circle>
  <circle cx="320" cy="110" r="1.8" fill="#ffffff"><animate attributeName="opacity" values="0.5;1;0.5" dur="3.4s" begin="0.7s" repeatCount="indefinite"/></circle>
  <circle cx="310" cy="70" r="1.2" fill="#ffd0d0"><animate attributeName="opacity" values="0.5;1;0.5" dur="3s" begin="1.2s" repeatCount="indefinite"/></circle>
  <circle cx="380" cy="85" r="2" fill="#ffffff"><animate attributeName="opacity" values="0.5;1;0.5" dur="3.1s" begin="0.5s" repeatCount="indefinite"/></circle>
  <circle cx="420" cy="100" r="1.5" fill="#ffd0d0"><animate attributeName="opacity" values="0.5;1;0.5" dur="3.3s" begin="0.9s" repeatCount="indefinite"/></circle>
  <circle cx="410" cy="130" r="1.3" fill="#ffffff"><animate attributeName="opacity" values="0.5;1;0.5" dur="3.2s" begin="1.5s" repeatCount="indefinite"/></circle>
  <circle cx="580" cy="60" r="1.8" fill="#ffd0d0"><animate attributeName="opacity" values="0.5;1;0.5" dur="3.3s" begin="0.2s" repeatCount="indefinite"/></circle>
  <circle cx="640" cy="90" r="2" fill="#ffffff"><animate attributeName="opacity" values="0.5;1;0.5" dur="3s" begin="0.8s" repeatCount="indefinite"/></circle>
  <circle cx="670" cy="75" r="1.2" fill="#ffd0d0"><animate attributeName="opacity" values="0.5;1;0.5" dur="3.1s" begin="1.3s" repeatCount="indefinite"/></circle>
  <circle cx="700" cy="70" r="1.5" fill="#ffffff"><animate attributeName="opacity" values="0.5;1;0.5" dur="3.4s" begin="0.6s" repeatCount="indefinite"/></circle>
  <circle cx="750" cy="150" r="1.3" fill="#ffd0d0"><animate attributeName="opacity" values="0.5;1;0.5" dur="3.2s" begin="1s" repeatCount="indefinite"/></circle>
  <circle cx="810" cy="170" r="2" fill="#ffffff"><animate attributeName="opacity" values="0.5;1;0.5" dur="3.3s" begin="0.4s" repeatCount="indefinite"/></circle>
  <circle cx="850" cy="145" r="1.5" fill="#ffd0d0"><animate attributeName="opacity" values="0.5;1;0.5" dur="3s" begin="1.6s" repeatCount="indefinite"/></circle>
  <circle cx="880" cy="160" r="1.2" fill="#ffffff"><animate attributeName="opacity" values="0.5;1;0.5" dur="3.1s" begin="0.2s" repeatCount="indefinite"/></circle>
  <circle cx="150" cy="160" r="1.5" fill="#ffffff"><animate attributeName="opacity" values="0.5;1;0.5" dur="3.2s" begin="0.9s" repeatCount="indefinite"/></circle>
  <circle cx="200" cy="190" r="1.8" fill="#ffd0d0"><animate attributeName="opacity" values="0.5;1;0.5" dur="3s" begin="1.1s" repeatCount="indefinite"/></circle>
  <circle cx="240" cy="165" r="1.3" fill="#ffffff"><animate attributeName="opacity" values="0.5;1;0.5" dur="3.3s" begin="0.7s" repeatCount="indefinite"/></circle>
  <circle cx="180" cy="210" r="1.2" fill="#ffd0d0"><animate attributeName="opacity" values="0.5;1;0.5" dur="3.1s" begin="1.4s" repeatCount="indefinite"/></circle>
  <circle cx="450" cy="180" r="2" fill="#ffffff"><animate attributeName="opacity" values="0.5;1;0.5" dur="3.2s" begin="0.3s" repeatCount="indefinite"/></circle>
  <circle cx="510" cy="160" r="1.5" fill="#ffd0d0"><animate attributeName="opacity" values="0.5;1;0.5" dur="3.4s" begin="1.2s" repeatCount="indefinite"/></circle>
  <circle cx="550" cy="190" r="1.3" fill="#ffffff"><animate attributeName="opacity" values="0.5;1;0.5" dur="3s" begin="0.5s" repeatCount="indefinite"/></circle>
  <circle cx="480" cy="200" r="1.2" fill="#ffd0d0"><animate attributeName="opacity" values="0.5;1;0.5" dur="3.1s" begin="1.7s" repeatCount="indefinite"/></circle>
  <circle cx="350" cy="50" r="1" fill="#ffffff"><animate attributeName="opacity" values="0.5;1;0.5" dur="3.3s" begin="0.1s" repeatCount="indefinite"/></circle>
  <circle cx="620" cy="130" r="1.2" fill="#ffd0d0"><animate attributeName="opacity" values="0.5;1;0.5" dur="3.2s" begin="0.4s" repeatCount="indefinite"/></circle>
  <circle cx="300" cy="190" r="1" fill="#ffffff"><animate attributeName="opacity" values="0.5;1;0.5" dur="3s" begin="1.8s" repeatCount="indefinite"/></circle>
  <circle cx="700" cy="200" r="1.3" fill="#ffd0d0"><animate attributeName="opacity" values="0.5;1;0.5" dur="3.4s" begin="0.8s" repeatCount="indefinite"/></circle>
  <circle cx="900" cy="80" r="1.1" fill="#ffffff"><animate attributeName="opacity" values="0.5;1;0.5" dur="3.1s" begin="1.3s" repeatCount="indefinite"/></circle>
  <circle cx="100" cy="120" r="1.2" fill="#ffd0d0"><animate attributeName="opacity" values="0.5;1;0.5" dur="3.2s" begin="0.6s" repeatCount="indefinite"/></circle>
  <line x1="100" y1="30" x2="180" y2="50" stroke="#ffd0d0" stroke-width="1" stroke-linecap="round" opacity="0.6">
    <animate attributeName="x1" values="100;900" dur="8s" repeatCount="indefinite"/>
    <animate attributeName="x2" values="180;980" dur="8s" repeatCount="indefinite"/>
    <animate attributeName="y1" values="30;110" dur="8s" repeatCount="indefinite"/>
    <animate attributeName="y2" values="50;130" dur="8s" repeatCount="indefinite"/>
    <animate attributeName="opacity" values="0;0.8;0" dur="2s" repeatCount="indefinite"/>
  </line>
</svg>
